<svg xmlns="http://www.w3.org/2000/svg" version="1.1" xmlns:xlink="http://www.w3.org/1999/xlink" width="512" height="512" x="0" y="0" viewBox="0 0 512 512" style="enable-background:new 0 0 512 512" xml:space="preserve"><g><path fill="#89c627" d="M89.474 382.149c-4.929-.029-10.184-.045-15.81-.045-15.699 0-30.072 6.959-35.872 24.141-19.735 0-35.733 15.998-35.733 35.733 0 19.734 15.998 35.732 35.733 35.732h51.681v-95.561zM422.526 382.149c4.929-.029 10.184-.045 15.81-.045 15.699 0 30.072 6.959 35.872 24.141 19.735 0 35.733 15.998 35.733 35.733 0 19.734-15.998 35.732-35.733 35.732h-51.681v-95.561z" opacity="1" data-original="#89c627"></path><path fill="#688b96" d="M441.675 475.989H203.828V147.496c0-7.406 6.004-13.41 13.41-13.41h211.026c7.406 0 13.41 6.004 13.41 13.41v328.493z" opacity="1" data-original="#688b96"></path><path fill="#97e4f9" d="M397.985 231.933h-82.749v-50.994h82.749a6.877 6.877 0 0 1 6.877 6.877v37.241a6.878 6.878 0 0 1-6.877 6.876zM397.985 326.517h-82.749v-50.994h82.749a6.877 6.877 0 0 1 6.877 6.877v37.241a6.878 6.878 0 0 1-6.877 6.876zM397.985 421.101h-82.749v-50.994h82.749a6.877 6.877 0 0 1 6.877 6.877v37.241a6.878 6.878 0 0 1-6.877 6.876z" opacity="1" data-original="#97e4f9"></path><path fill="#557981" d="M428.265 134.086h-36.813c7.406 0 13.41 6.004 13.41 13.41v328.493h36.813V147.496c0-7.406-6.004-13.41-13.41-13.41z" opacity="1" data-original="#557981"></path><path fill="#daeaef" d="M323.726 475.989H83.93V13.706C83.93 6.3 89.934.296 97.34.296h212.976c7.406 0 13.41 6.004 13.41 13.41z" opacity="1" data-original="#daeaef"></path><path fill="#c9e2e7" d="M310.316.296h-36.758c7.406 0 13.41 6.004 13.41 13.41v462.283h36.758V13.706c0-7.406-6.004-13.41-13.41-13.41z" opacity="1" data-original="#c9e2e7"></path><path fill="#0e80ac" d="M501.316 464.909H10.684C4.783 464.909 0 469.692 0 475.593v25.427c0 5.901 4.783 10.684 10.684 10.684h490.632c5.901 0 10.684-4.783 10.684-10.684v-25.427c0-5.901-4.783-10.684-10.684-10.684z" opacity="1" data-original="#0e80ac"></path><path fill="#557981" d="M233.715 364.702h-60.637a4.486 4.486 0 0 0-4.486 4.485v95.721H238.2v-95.721a4.485 4.485 0 0 0-4.485-4.485z" opacity="1" data-original="#557981"></path><g fill="#97e4f9"><path d="M216.313 74.26H190.48a4.486 4.486 0 0 1-4.486-4.486V43.941a4.486 4.486 0 0 1 4.486-4.486h25.833a4.486 4.486 0 0 1 4.486 4.486v25.833a4.487 4.487 0 0 1-4.486 4.486zM282.512 74.26h-25.833a4.486 4.486 0 0 1-4.486-4.486V43.941a4.486 4.486 0 0 1 4.486-4.486h25.833a4.486 4.486 0 0 1 4.486 4.486v25.833a4.485 4.485 0 0 1-4.486 4.486zM216.313 155.571H190.48a4.486 4.486 0 0 1-4.486-4.486v-25.833a4.486 4.486 0 0 1 4.486-4.486h25.833a4.486 4.486 0 0 1 4.486 4.486v25.833a4.487 4.487 0 0 1-4.486 4.486zM282.512 155.571h-25.833a4.486 4.486 0 0 1-4.486-4.486v-25.833a4.486 4.486 0 0 1 4.486-4.486h25.833a4.486 4.486 0 0 1 4.486 4.486v25.833a4.485 4.485 0 0 1-4.486 4.486zM216.313 236.883H190.48a4.486 4.486 0 0 1-4.486-4.486v-25.833a4.486 4.486 0 0 1 4.486-4.486h25.833a4.486 4.486 0 0 1 4.486 4.486v25.833a4.487 4.487 0 0 1-4.486 4.486zM282.512 236.883h-25.833a4.486 4.486 0 0 1-4.486-4.486v-25.833a4.486 4.486 0 0 1 4.486-4.486h25.833a4.486 4.486 0 0 1 4.486 4.486v25.833a4.485 4.485 0 0 1-4.486 4.486zM216.313 318.194H190.48a4.486 4.486 0 0 1-4.486-4.486v-25.833a4.486 4.486 0 0 1 4.486-4.486h25.833a4.486 4.486 0 0 1 4.486 4.486v25.833a4.487 4.487 0 0 1-4.486 4.486zM282.512 318.194h-25.833a4.486 4.486 0 0 1-4.486-4.486v-25.833a4.486 4.486 0 0 1 4.486-4.486h25.833a4.486 4.486 0 0 1 4.486 4.486v25.833a4.485 4.485 0 0 1-4.486 4.486zM150.113 74.26H124.28a4.486 4.486 0 0 1-4.486-4.486V43.941a4.486 4.486 0 0 1 4.486-4.486h25.833a4.486 4.486 0 0 1 4.486 4.486v25.833a4.486 4.486 0 0 1-4.486 4.486zM150.113 155.571H124.28a4.486 4.486 0 0 1-4.486-4.486v-25.833a4.486 4.486 0 0 1 4.486-4.486h25.833a4.486 4.486 0 0 1 4.486 4.486v25.833a4.486 4.486 0 0 1-4.486 4.486zM150.113 236.883H124.28a4.486 4.486 0 0 1-4.486-4.486v-25.833a4.486 4.486 0 0 1 4.486-4.486h25.833a4.486 4.486 0 0 1 4.486 4.486v25.833a4.486 4.486 0 0 1-4.486 4.486zM150.113 318.194H124.28a4.486 4.486 0 0 1-4.486-4.486v-25.833a4.486 4.486 0 0 1 4.486-4.486h25.833a4.486 4.486 0 0 1 4.486 4.486v25.833a4.486 4.486 0 0 1-4.486 4.486z" fill="#97e4f9" opacity="1" data-original="#97e4f9"></path></g></g></svg>